<svg width="36" height="36" viewBox="0 0 36 36" fill="none" xmlns="http://www.w3.org/2000/svg">
<rect width="36" height="36" rx="4" fill="#A1FFBC"/>
<path d="M2.31534 14L3.7642 5.27273H9.44034L9.21875 6.59801H5.12358L4.73153 8.96733H8.53267L8.31108 10.2926H4.50994L4.1179 12.6747H8.24716L8.02557 14H2.31534ZM12.581 14L14.0298 5.27273H19.706L19.4844 6.59801H15.3892L14.9972 8.96733H18.7983L18.5767 10.2926H14.7756L14.3835 12.6747H18.5128L18.2912 14H12.581ZM26.6669 6.59801L26.8885 5.27273H33.8516L33.63 6.59801H30.9325L29.7053 14H28.1371L29.3643 6.59801H26.6669Z" fill="black"/>
<path d="M19.2642 12.7827H20.8324C20.8324 13.044 20.875 13.2756 20.9602 13.4773C21.0455 13.6818 21.1648 13.8551 21.3182 13.9972C21.4716 14.1392 21.6534 14.2457 21.8636 14.3168C22.0739 14.3906 22.3068 14.4276 22.5625 14.4276C23.0511 14.4276 23.5057 14.304 23.9261 14.0568C24.3466 13.8097 24.7031 13.4503 24.9957 12.9787C25.2884 12.5099 25.4915 11.9403 25.6051 11.2699C25.7102 10.6165 25.7003 10.0696 25.5753 9.62926C25.4474 9.18892 25.2259 8.85653 24.9105 8.6321C24.5952 8.41051 24.2116 8.29972 23.7599 8.29972C23.4844 8.29972 23.2202 8.33381 22.9673 8.40199C22.7145 8.47301 22.4815 8.5767 22.2685 8.71307C22.0526 8.85227 21.8636 9.02131 21.7017 9.22017C21.5369 9.41903 21.4091 9.64489 21.3182 9.89773H19.7287C19.8594 9.48295 20.0511 9.09233 20.304 8.72585C20.5568 8.36222 20.8608 8.04119 21.2159 7.76278C21.571 7.48722 21.9687 7.27131 22.4091 7.11506C22.8494 6.95881 23.3239 6.88068 23.8324 6.88068C24.6136 6.88068 25.2827 7.0625 25.8395 7.42614C26.3935 7.79261 26.7912 8.31676 27.0327 8.99858C27.2741 9.68324 27.3168 10.5028 27.1605 11.4574C27.0043 12.3864 26.7031 13.1776 26.2571 13.831C25.8082 14.4844 25.2614 14.983 24.6165 15.3267C23.9687 15.6733 23.2713 15.8466 22.5241 15.8466C22.0298 15.8466 21.581 15.7784 21.1776 15.642C20.7713 15.5057 20.4233 15.3054 20.1335 15.0412C19.8437 14.7798 19.6236 14.4588 19.473 14.0781C19.3196 13.7003 19.25 13.2685 19.2642 12.7827ZM12.8136 7L11.3647 15.7273H9.78374L11.011 8.32528H7.16726L7.38885 7H12.8136Z" fill="black"/>
<path d="M28.0682 30.7273L26.9347 23.858H26.8452L23.4403 30.7273H21.7017L26.2273 22H28.179L29.8026 30.7273H28.0682ZM21.1573 29.402L20.9357 30.7273H13.9727L14.1942 29.402H16.8917L18.119 22H19.6871L18.4599 29.402H21.1573ZM11.1026 22L9.65376 30.7273H6.38104C5.71058 30.7273 5.16655 30.6108 4.74893 30.3778C4.33132 30.1449 4.04013 29.8182 3.87536 29.3977C3.71058 28.9801 3.67507 28.4929 3.76882 27.9361C3.85973 27.3793 4.05859 26.8949 4.36541 26.483C4.66939 26.0739 5.07138 25.7571 5.57138 25.5327C6.06854 25.3082 6.65234 25.196 7.3228 25.196H9.65376L9.43217 26.5085H7.31001C6.91797 26.5085 6.58842 26.5625 6.32138 26.6705C6.05433 26.7813 5.84411 26.9418 5.6907 27.152C5.53445 27.3651 5.43075 27.6264 5.37962 27.9361C5.33132 28.2457 5.34979 28.5099 5.43501 28.7287C5.5174 28.9503 5.67507 29.1179 5.90803 29.2315C6.13814 29.348 6.44922 29.4062 6.84126 29.4062H8.29013L9.52166 22H11.1026ZM5.93785 25.9545L4.43359 22H6.1978L7.66371 25.9545H5.93785Z" fill="black"/>
<path d="M10.3153 29L11.7642 20.2727H17.4403L17.2188 21.598H13.1236L12.7315 23.9673H16.5327L16.3111 25.2926H12.5099L12.1179 27.6747H16.2472L16.0256 29H10.3153ZM23.6108 20.2727L22.1619 29H20.581L22.0298 20.2727H23.6108Z" fill="black"/>
</svg>
